<svg width="1440" height="262" viewBox="0 0 1440 262" fill="none" xmlns="http://www.w3.org/2000/svg">
<path fill-rule="evenodd" clip-rule="evenodd" d="M0 173.667L24 168.759C48 163.852 96 154.037 144 168.759C192 183.481 240 222.741 288 212.926C336 203.111 384 144.222 432 149.13C480 154.037 528 222.741 576 212.926C624 203.111 672 114.778 720 95.1481C768 75.5185 816 124.593 864 129.5C912 134.407 960 95.1481 1008 104.963C1056 114.778 1104 173.667 1152 173.667C1200 173.667 1248 114.778 1296 119.685C1344 124.593 1392 193.296 1416 227.648L1440 262V-3H1416C1392 -3 1344 -3 1296 -3C1248 -3 1200 -3 1152 -3C1104 -3 1056 -3 1008 -3C960 -3 912 -3 864 -3C816 -3 768 -3 720 -3C672 -3 624 -3 576 -3C528 -3 480 -3 432 -3C384 -3 336 -3 288 -3C240 -3 192 -3 144 -3C96 -3 48 -3 24 -3H0V173.667Z" fill="#151515"/>
</svg>
